# Rhino

mtllib aqua_auburn.mtl
g object_1
usemtl Material_1
v -13.815 27.306 -0.22204
v -13.815 -2.6772 -0.22204
v 38.735 27.306 -0.22204
v 38.735 -2.6772 -0.22204
v -13.815 27.306 -0.21058
v -13.815 -2.6772 -0.21058
v 38.735 27.306 -0.21058
v 38.735 -2.6772 -0.21058
v 38.735 27.306 -0.21058
v 38.735 27.306 -0.22204
v -13.815 27.306 -0.21058
v -13.815 27.306 -0.22204
v 38.735 -2.6772 -0.21058
v 38.735 -2.6772 -0.22204
v 38.735 27.306 -0.21058
v 38.735 27.306 -0.22204
v -13.815 -2.6772 -0.21058
v -13.815 -2.6772 -0.22204
v 38.735 -2.6772 -0.21058
v 38.735 -2.6772 -0.22204
v -13.815 27.306 -0.21058
v -13.815 27.306 -0.22204
v -13.815 -2.6772 -0.21058
v -13.815 -2.6772 -0.22204
vt 1 1
vt 1 0
vt 3.0671e-08 1
vt 3.0671e-08 0
vt 0 1
vt 0 0
vt 1 1
vt 1 0
vt 3.0671e-08 1
vt 3.0671e-08 0
vt 1 1
vt 1 0
vt 0 1
vt 0 0
vt 1 1
vt 1 0
vt 0 1
vt 0 0
vt 1 1
vt 1 0
vt 1.7055e-08 1
vt 1.7055e-08 0
vt 1 1
vt 1 0
vn 0 0 -1
vn 0 0 -1
vn 0 0 -1
vn 0 0 -1
vn 0 0 1
vn 0 0 1
vn 0 0 1
vn 0 0 1
vn 0 1 0
vn 0 1 0
vn 0 1 0
vn 0 1 0
vn 1 0 0
vn 1 0 0
vn 1 0 0
vn 1 0 0
vn 3.4694e-17 -1 0
vn 3.4694e-17 -1 0
vn 3.4694e-17 -1 0
vn 3.4694e-17 -1 0
vn -1 0 0
vn -1 0 0
vn -1 0 0
vn -1 0 0
f 2/2/2 1/1/1 3/3/3 4/4/4
f 6/6/6 8/8/8 7/7/7 5/5/5
f 10/10/10 12/12/12 11/11/11 9/9/9
f 14/14/14 16/16/16 15/15/15 13/13/13
f 18/18/18 20/20/20 19/19/19 17/17/17
f 22/22/22 24/24/24 23/23/23 21/21/21
