<?xml version="1.0" encoding="UTF-8" standalone="no"?>
<svg width="20px" height="22px" viewBox="0 0 20 22" version="1.1" xmlns="http://www.w3.org/2000/svg" xmlns:xlink="http://www.w3.org/1999/xlink">
    <!-- Generator: Sketch 3.7.1 (28215) - http://www.bohemiancoding.com/sketch -->
    <title>Fill 1</title>
    <desc>Created with Sketch.</desc>
    <defs></defs>
    <g id="Page-1" stroke="none" stroke-width="1" fill="none" fill-rule="evenodd">
        <g id="iPhone-6" transform="translate(-26.000000, -528.000000)" fill="#FFFFFF">
            <g id="Group" transform="translate(24.000000, 528.000000)">
                <path d="M4.82498401,12.9432591 C4.82507863,12.9387886 4.82507863,12.9343604 4.82498401,12.9298899 L4.82498401,11.9094397 L7.20561614,11.9094397 L7.20561614,12.8117253 C7.20561614,13.7764332 7.99553277,14.561311 8.96643391,14.561311 L21.5735725,14.561311 C21.7487332,14.561311 21.9061289,14.4548655 21.9703286,14.2929221 C22.034481,14.131021 21.9925502,13.9465278 21.8644346,13.8277991 L16.6177619,8.96522409 L21.8643873,4.10264912 C21.9925028,3.9839204 22.0344763,3.79942244 21.9702766,3.63752606 C21.9060769,3.47557796 21.7486859,3.36913719 21.5735205,3.36913719 L13.2639965,3.36913719 L13.2639965,1.14101228 C13.2639965,0.906991145 13.0731053,0.717317585 12.8375817,0.717317585 L8.96643391,0.717317585 C8.9590914,0.717317585 8.95164953,0.717364593 8.94435432,0.717458609 L4.82498401,0.717458609 C4.82498401,0.717458609 4.82503132,0.657245751 4.82503132,0.655224396 C4.82503132,0.220463959 4.3497666,0 3.41255114,0 C2.4752879,0 2.00007097,0.220463959 2.00007097,0.655224396 L2.00007097,3.29725219 C1.99997634,3.30167566 1.99997634,3.30614615 2.00007097,3.31062133 L2.00007097,6.01568718 C1.99997634,6.02011065 1.99997634,6.02458114 2.00007097,6.02905632 L2.00007097,8.73412217 C1.99997634,8.73854564 1.99997634,8.74301612 2.00007097,8.74749131 L2.00007097,11.4524584 C1.99997634,11.4569336 1.99997634,11.4614511 2.00007097,11.4659733 L2.00007097,14.1710392 C1.99997634,14.1754626 1.99997634,14.1799331 2.00007097,14.1844083 L2.00007097,16.8895164 C1.99997634,16.8939446 1.99997634,16.8984151 2.00007097,16.9028903 L2.00007097,19.6079063 C1.99997634,19.6123317 1.99997634,19.616804 2.00007097,19.6212764 L2.00007097,21.3448247 C2.00007097,21.7795376 2.4752879,22 3.41259845,22 C4.34981391,22 4.82507863,21.7795835 4.82507863,21.3448247 C4.82507863,21.3431296 4.82507863,21.3412934 4.82503132,21.3394112 L4.82498401,12.9432591 Z M3.97215119,21.1045877 C3.85052799,21.1289741 3.65977774,21.1524656 3.41255114,21.1524656 C3.16527723,21.1524656 2.97452698,21.1289266 2.852856,21.1045407 L2.852856,19.8473404 L3.97210388,19.14344 L3.97210388,21.1045877 L3.97215119,21.1045877 Z M3.97215119,18.1405981 L2.85290331,18.8444986 L2.85290331,17.1289529 L3.97215119,16.4250515 L3.97215119,18.1405981 L3.97215119,18.1405981 Z M3.97215119,15.4221635 L2.85290331,16.126065 L2.85290331,14.4104709 L3.97215119,13.7065695 L3.97215119,15.4221635 L3.97215119,15.4221635 Z M3.97215119,12.7037286 L2.85290331,13.40763 L2.85290331,11.6919889 L3.97215119,10.9880875 L3.97215119,12.7037286 L3.97215119,12.7037286 Z M3.97215119,9.98524656 L2.85290331,10.689148 L2.85290331,8.97364797 L3.97215119,8.26974653 L3.97215119,9.98524656 L3.97215119,9.98524656 Z M3.97215119,7.26681157 L2.85290331,7.97076001 L2.85290331,6.25516597 L3.97215119,5.55126924 L3.97215119,7.26681157 L3.97215119,7.26681157 Z M3.97215119,4.54837658 L2.85290331,5.25227801 L2.85290331,3.53673098 L3.97215119,2.83283425 L3.97215119,4.54837658 L3.97215119,4.54837658 Z M3.97215119,1.8299886 L2.85290331,2.53389003 L2.85290331,0.895318998 C2.97452698,0.870931121 3.16527676,0.847394094 3.41255114,0.847394094 C3.65973043,0.847394094 3.85048068,0.870931121 3.97215119,0.895318998 L3.97215119,1.8299886 L3.97215119,1.8299886 Z M7.20561614,2.46694559 L7.20561614,11.0620503 L4.82498401,11.0620503 L4.82498401,10.224636 C4.82507863,10.2202596 4.82507863,10.2158314 4.82498401,10.2114549 L4.82498401,7.50634207 C4.82507863,7.50187158 4.82507863,7.49744811 4.82498401,7.49297292 L4.82498401,4.78776606 C4.82507863,4.78338959 4.82507863,4.77896611 4.82498401,4.77458494 L4.82498401,2.0695191 C4.82507863,2.06504861 4.82507863,2.06062044 4.82498401,2.05614995 L4.82498401,1.5648527 L7.45819966,1.5648527 C7.29791328,1.82839032 7.20561614,2.13721567 7.20561614,2.46694559 L7.20561614,2.46694559 Z M8.9505614,1.5648527 L9.67646282,1.5648527 C9.68011043,1.5648527 9.68371072,1.5648057 9.68735832,1.56471168 L12.411115,1.56471168 L12.411115,3.36913719 L8.96643391,3.36913719 C8.4657708,3.36913719 8.05845038,2.96441502 8.05845038,2.46689858 C8.05845038,1.97470817 8.45719822,1.57327658 8.9505614,1.5648527 L8.9505614,1.5648527 Z M8.96643391,13.7139169 C8.4657708,13.7139169 8.05845038,13.309143 8.05845038,12.8116313 L8.05845038,3.96546496 C8.32372717,4.12472889 8.63449256,4.21648428 8.96643391,4.21648428 L20.4912326,4.21648428 L15.7017735,8.65535985 C15.6153049,8.73553241 15.5662208,8.84771758 15.5662208,8.96522409 C15.5662208,9.08272589 15.6153049,9.19491107 15.7017735,9.27508363 L20.4912326,13.7139639 L8.96643391,13.7139639 L8.96643391,13.7139169 Z" id="Fill-1"></path>
            </g>
        </g>
    </g>
</svg>